<?xml version="1.0" standalone="no"?><!DOCTYPE svg PUBLIC "-//W3C//DTD SVG 1.1//EN" "http://www.w3.org/Graphics/SVG/1.1/DTD/svg11.dtd"><svg t="1615107906254" class="icon" viewBox="0 0 1025 1024" version="1.1" xmlns="http://www.w3.org/2000/svg" p-id="1990" xmlns:xlink="http://www.w3.org/1999/xlink" width="200.1953125" height="200"><defs><style type="text/css"></style></defs><path d="M1006.4 473.6L832 312c-17.6-17.6-43.2-17.6-59.2 0s-17.6 43.2 0 59.2l148.8 140.8-148.8 140.8c-17.6 17.6-17.6 43.2 0 59.2 8 8 20.8 12.8 30.4 12.8 8 0 20.8-4.8 30.4-12.8L1008 550.4c8-8 17.6-25.6 17.6-38.4-1.6-12.8-6.4-30.4-19.2-38.4zM251.2 312c-17.6-17.6-43.2-17.6-59.2 0L17.6 473.6C4.8 481.6 0 499.2 0 512c0 12.8 4.8 30.4 17.6 38.4L192 712c8 8 17.6 12.8 30.4 12.8s20.8-4.8 30.4-12.8c17.6-17.6 17.6-43.2 0-59.2L102.4 512l148.8-140.8c17.6-17.6 17.6-43.2 0-59.2z" p-id="1991"></path><path d="M340.8 512m-43.2 0a43.2 43.2 0 1 0 86.4 0 43.2 43.2 0 1 0-86.4 0Z" p-id="1992"></path><path d="M512 512m-43.2 0a43.2 43.2 0 1 0 86.4 0 43.2 43.2 0 1 0-86.4 0Z" p-id="1993"></path><path d="M683.2 512m-43.2 0a43.2 43.2 0 1 0 86.4 0 43.2 43.2 0 1 0-86.4 0Z" p-id="1994"></path></svg>