<?xml version="1.0" standalone="no"?><!DOCTYPE svg PUBLIC "-//W3C//DTD SVG 1.1//EN" "http://www.w3.org/Graphics/SVG/1.1/DTD/svg11.dtd"><svg t="1615106568538" class="icon" viewBox="0 0 1024 1024" version="1.1" xmlns="http://www.w3.org/2000/svg" p-id="1756" xmlns:xlink="http://www.w3.org/1999/xlink" width="200" height="200"><defs><style type="text/css"></style></defs><path d="M734.122667 181.333333H289.877333A108.8 108.8 0 0 0 181.333333 290.432V818.773333c0 89.813333 102.186667 141.226667 173.781334 87.168l130.261333-98.389333c15.786667-11.946667 37.418667-11.946667 53.248 0l130.261333 98.389333c71.594667 54.058667 173.781333 2.645333 173.781334-87.168V290.432a108.8 108.8 0 0 0-108.544-109.098667zM289.877333 245.333333h444.245334a44.8 44.8 0 0 1 44.544 45.098667V818.773333c0 37.12-41.898667 58.24-71.210667 36.096l-130.261333-98.389333a108.032 108.032 0 0 0-130.389334 0L316.586667 854.912c-29.312 22.144-71.210667 1.066667-71.210667-36.096V290.432A44.8 44.8 0 0 1 289.877333 245.333333z" fill="#333333" p-id="1757"></path></svg>